<svg class="icon" viewBox="0 0 1024 1024" version="1.1" xmlns="http://www.w3.org/2000/svg" p-id="3841"
     width="128" height="128">
    <path d="M754.663647 1019.071348a11.016988 11.016988 0 0 0-2.029445-2.609287 154.237826 154.237826 0 0 1-33.340884-28.992072L714.364666 985.730464h-10.727067l-14.496036 7.537939a22.323896 22.323896 0 0 1-28.992073-9.277463l-7.827859-14.785957a22.323896 22.323896 0 0 1 9.277463-28.992072l14.496036-7.537939v-4.05889a153.947905 153.947905 0 0 1-4.05889-41.748585 11.016988 11.016988 0 0 0-7.537939-12.466591l-15.655719-4.928652a22.323896 22.323896 0 0 1-14.785957-28.992073l4.928652-15.94564a22.323896 22.323896 0 0 1 28.992073-14.785957l15.655719 4.928653a11.016988 11.016988 0 0 0 13.046433-6.088336 154.237826 154.237826 0 0 1 26.672706-32.1812V756.11325l-7.537938-14.496036a22.323896 22.323896 0 0 1 9.277463-28.992072l14.785957-7.82786a22.323896 22.323896 0 0 1 28.992072 9.277463l2.319366 7.82786a64.362401 64.362401 0 0 0 2.609286 7.537939c2.319366 5.508494 8.987542 6.088335 15.075878 4.638731a154.237826 154.237826 0 0 1 43.198188-4.05889h2.319366a11.016988 11.016988 0 0 0 8.987542-7.537939l4.928653-15.655719a20.584371 20.584371 0 0 1 0-2.609286 439.519819 439.519819 0 0 0-231.93658-169.603624 282.382786 282.382786 0 1 0-262.958097 1.739524A448.507361 448.507361 0 0 0 47.546999 960.507361v33.630804a26.962627 26.962627 0 0 0 23.483579 24.063421h682.473386z"
    ></path>
    <path d="M831.977386 879.758224m-32.802472 17.353357a37.109853 37.109853 0 1 0 65.604943-34.706715 37.109853 37.109853 0 1 0-65.604943 34.706715Z"
    ></path>
    <path d="M725.961495 961.377123l10.727067-5.798414H743.356738a114.228766 114.228766 0 0 0 24.933183 20.584371l1.449603 2.029445a8.11778 8.11778 0 0 1 0 6.378256l-3.479048 11.596829a16.525481 16.525481 0 0 0 11.016987 20.584372l11.88675 3.768969a16.525481 16.525481 0 0 0 20.584371-11.016987l3.479049-11.596829h2.609287a115.96829 115.96829 0 0 0 32.1812-2.899207 8.11778 8.11778 0 0 1 8.697622 4.05889l5.798414 10.727066a16.525481 16.525481 0 0 0 22.323896 6.958098l11.016988-5.798415a16.525481 16.525481 0 0 0 6.958097-22.323895l-5.798414-10.727067a8.11778 8.11778 0 0 1 0-9.567384 114.228766 114.228766 0 0 0 20.584371-24.933182h7.82786l11.596829 3.479048a16.525481 16.525481 0 0 0 20.584371-11.016987l3.768969-11.88675a16.525481 16.525481 0 0 0-11.016987-20.584372l-11.596829-3.479048a8.11778 8.11778 0 0 1-5.798415-6.378256 114.228766 114.228766 0 0 0-2.899207-31.89128 8.11778 8.11778 0 0 1 0-1.449604v-3.189127l10.727067-5.798415a16.525481 16.525481 0 0 0 6.958097-22.323896l-5.798414-11.016987a16.525481 16.525481 0 0 0-22.323896-6.958098l-10.727067 5.798415a8.11778 8.11778 0 0 1-9.567384 0 115.96829 115.96829 0 0 0-24.933182-20.584372V790.033975l3.479049-11.596829a16.525481 16.525481 0 0 0-11.016988-20.584371l-11.88675-3.76897a16.525481 16.525481 0 0 0-20.584371 11.016988l-3.479049 11.596829a8.11778 8.11778 0 0 1-6.668176 5.798414h-1.739525a114.228766 114.228766 0 0 0-31.891279 2.899207 8.11778 8.11778 0 0 1-11.016988-3.479048 19.134768 19.134768 0 0 1 0-5.798415l-2.319366-5.798414a16.525481 16.525481 0 0 0-22.323896-6.958098l-11.016987 5.798415a16.525481 16.525481 0 0 0-6.958098 22.323896l5.798415 10.727067v5.798414a114.228766 114.228766 0 0 0-20.00453 23.773499 8.11778 8.11778 0 0 1-9.857305 4.638732l-11.596829-3.479049a16.525481 16.525481 0 0 0-20.584371 11.016988l-3.76897 11.88675a16.525481 16.525481 0 0 0 11.016988 20.584371l11.596829 3.479049a8.11778 8.11778 0 0 1 5.508494 9.277463 114.228766 114.228766 0 0 0 2.899207 31.021518v3.768969l-10.727067 5.798414a16.525481 16.525481 0 0 0-6.958097 22.323896l5.798414 11.016988a16.525481 16.525481 0 0 0 29.861835-1.739525z m80.887882-129.014722a53.635334 53.635334 0 1 1-22.323896 72.480181 53.635334 53.635334 0 0 1 22.613817-72.480181z"
    ></path>
</svg>
