<svg class="icon" viewBox="0 0 1024 1024" version="1.1" xmlns="http://www.w3.org/2000/svg"
     width="128" height="128">
    <path d="M242.688 15.36H64.512C32.768 15.36 8.192 40.96 8.192 72.704V952.32c0 31.744 25.6 56.32 56.32 56.32h178.176c31.744 0 56.32-25.6 56.32-56.32V72.704c1.024-31.744-24.576-57.344-56.32-57.344zM153.6 945.152c-43.008 0-76.8-34.816-76.8-77.824 0-43.008 34.816-76.8 76.8-76.8s76.8 34.816 76.8 76.8c1.024 43.008-33.792 77.824-76.8 77.824z m80.896-666.624H72.704c-10.24 0-19.456-8.192-19.456-19.456s8.192-19.456 19.456-19.456h160.768c10.24 0 19.456 8.192 19.456 19.456s-8.192 19.456-18.432 19.456z m0-95.232H72.704c-10.24 0-19.456-8.192-19.456-19.456s8.192-19.456 19.456-19.456h160.768c10.24 0 19.456 8.192 19.456 19.456s-8.192 19.456-18.432 19.456zM601.088 15.36H422.912c-31.744 0-56.32 25.6-56.32 56.32v879.616c0 31.744 25.6 56.32 56.32 56.32h178.176c31.744 0 56.32-25.6 56.32-56.32V72.704c0-31.744-24.576-57.344-56.32-57.344zM512 945.152c-43.008 0-76.8-34.816-76.8-77.824 0-43.008 34.816-76.8 76.8-76.8s76.8 34.816 76.8 76.8c0 43.008-33.792 77.824-76.8 77.824z m80.896-666.624H431.104c-10.24 0-19.456-8.192-19.456-19.456s8.192-19.456 19.456-19.456h160.768c10.24 0 19.456 8.192 19.456 19.456s-8.192 19.456-18.432 19.456z m0-95.232H431.104c-10.24 0-19.456-8.192-19.456-19.456s8.192-19.456 19.456-19.456h160.768c10.24 0 19.456 8.192 19.456 19.456s-8.192 19.456-18.432 19.456zM959.488 15.36H781.312c-31.744 0-56.32 25.6-56.32 56.32v879.616c0 31.744 25.6 56.32 56.32 56.32h178.176c31.744 0 56.32-25.6 56.32-56.32V72.704c0-31.744-24.576-57.344-56.32-57.344zM870.4 945.152c-43.008 0-76.8-34.816-76.8-77.824 0-43.008 34.816-76.8 76.8-76.8s76.8 34.816 76.8 76.8c0 43.008-33.792 77.824-76.8 77.824z m80.896-666.624H789.504c-10.24 0-19.456-8.192-19.456-19.456s8.192-19.456 19.456-19.456h160.768c10.24 0 19.456 8.192 19.456 19.456s-8.192 19.456-18.432 19.456z m0-95.232H789.504c-10.24 0-19.456-8.192-19.456-19.456s8.192-19.456 19.456-19.456h160.768c10.24 0 19.456 8.192 19.456 19.456s-8.192 19.456-18.432 19.456z"></path>
</svg>
