<svg class="icon3" viewBox="0 0 1024 1024" version="1.1" xmlns="http://www.w3.org/2000/svg"
     width="200" height="200">
    <path
            d="M102.4 197.973333m27.306667 0l764.586666 0q27.306667 0 27.306667 27.306667l0 641.706667q0 27.306667-27.306667 27.306666l-764.586666 0q-27.306667 0-27.306667-27.306666l0-641.706667q0-27.306667 27.306667-27.306667Z"
            fill="#FFA382"
    ></path>
    <path
            d="M850.363733 197.973333C889.705813 197.973333 921.6 229.94944 921.6 269.39392v553.478827c0 39.44448-31.894187 71.420587-71.236267 71.420586h-676.727466C134.294187 894.293333 102.4 862.317227 102.4 822.872747v-35.703467h641.112747c38.147413 0 69.290667-30.071467 71.14752-67.857067l0.088746-3.56352V197.973333h35.61472z"
            fill="#FB8E67"
    ></path>
    <path
            d="M850.827947 177.493333H173.172053C119.002453 177.493333 75.093333 221.115733 75.093333 274.937173v549.218987C75.093333 877.9776 119.002453 921.6 173.172053 921.6h677.655894c54.1696 0 98.07872-43.6224 98.07872-97.44384V274.937173C948.906667 221.115733 904.997547 177.493333 850.827947 177.493333z m-677.655894 53.152427h677.655894c24.61696 0 44.578133 19.831467 44.578133 44.291413v549.218987c0 24.459947-19.961173 44.291413-44.578133 44.291413H173.172053c-24.61696 0-44.578133-19.831467-44.578133-44.291413V274.937173c0-24.459947 19.961173-44.291413 44.578133-44.291413z"
            fill="#7B7BA3"
    ></path>
    <path
            d="M329.8304 137.570987L498.346667 214.289067V873.813333L268.581547 769.201493A27.306667 27.306667 0 0 1 252.586667 744.352427V187.26912a54.613333 54.613333 0 0 1 77.243733-49.698133z"
            fill="#FFA382"
    ></path>
    <path
            d="M336.110933 102.4C282.43968 102.4 238.933333 146.152107 238.933333 200.116907v526.72512c0 37.983573 21.886293 72.51968 56.1152 88.569173l206.554454 96.836267c17.57184 8.23296 37.70368-4.662613 37.70368-24.159574V204.53376a26.658133 26.658133 0 0 0-15.305387-24.14592L377.173333 111.547733A96.733867 96.733867 0 0 0 336.110933 102.4z m3.857067 53.47328c5.12 0.45056 10.130773 1.795413 14.813867 3.986773l131.515733 61.6448v624.76288L317.446827 767.09888a44.434773 44.434773 0 0 1-25.504427-40.256853V200.116907c0-24.528213 19.776853-44.414293 44.168533-44.414294l3.857067 0.170667z"
            fill="#7B7BA3"
    ></path>
    <path d="M607.573333 529.066667a98.986667 95.573333 90 1 0 191.146667 0 98.986667 95.573333 90 1 0-191.146667 0Z"
          fill="#FFEF8E"></path>
    <path
            d="M758.196907 450.553173C790.295893 467.00544 812.373333 501.295787 812.373333 540.93824 812.373333 596.60288 768.873813 641.706667 715.209387 641.706667c-38.229333 0-71.304533-22.89664-87.16288-56.183467 5.38624 0.805547 10.89536 1.221973 16.493226 1.221973 63.419733 0 114.83136-53.316267 114.83136-119.084373 0-5.290667-0.32768-10.50624-0.976213-15.612587z"
            fill="#F4DD55"
    ></path>
    <path
            d="M703.146667 402.773333C635.282773 402.773333 580.266667 459.318613 580.266667 529.066667S635.282773 655.36 703.146667 655.36s122.88-56.54528 122.88-126.293333S771.01056 402.773333 703.146667 402.773333z m0 54.12864c38.775467 0 70.219093 32.310613 70.219093 72.164694S741.922133 601.23136 703.146667 601.23136c-38.775467 0-70.219093-32.310613-70.219094-72.164693S664.3712 456.901973 703.146667 456.901973z"
            fill="#7B7BA3"
    ></path>
</svg>
